<svg width="353" height="584" viewBox="0 0 353 584" fill="none" xmlns="http://www.w3.org/2000/svg">
<rect width="353" height="584" rx="28" fill="url(#paint0_linear_6510_171)"/>
<ellipse cx="176.5" cy="427" rx="122.5" ry="122" fill="#FEFEFE"/>
<ellipse cx="176.5" cy="426" rx="49.5" ry="49" fill="url(#paint1_radial_6510_171)"/>
<path d="M166.873 330.88V342H165.049V334.384L161.657 342H160.393L156.985 334.384V342H155.161V330.88H157.129L161.033 339.6L164.921 330.88H166.873ZM171.094 332.352V335.616H174.934V337.104H171.094V340.512H175.414V342H169.27V330.864H175.414V332.352H171.094ZM186.797 342H184.973L179.485 333.696V342H177.661V330.864H179.485L184.973 339.152V330.864H186.797V342ZM191 330.88V337.968C191 338.811 191.219 339.445 191.656 339.872C192.104 340.299 192.723 340.512 193.512 340.512C194.312 340.512 194.931 340.299 195.368 339.872C195.816 339.445 196.04 338.811 196.04 337.968V330.88H197.864V337.936C197.864 338.843 197.667 339.611 197.272 340.24C196.878 340.869 196.35 341.339 195.688 341.648C195.027 341.957 194.296 342.112 193.496 342.112C192.696 342.112 191.966 341.957 191.304 341.648C190.654 341.339 190.136 340.869 189.752 340.24C189.368 339.611 189.176 338.843 189.176 337.936V330.88H191Z" fill="#7F7F7F"/>
<path d="M77.9066 428.219C76.6024 427.444 76.6024 425.556 77.9066 424.781L84.3775 420.935C85.7107 420.142 87.3993 421.103 87.3993 422.654L87.3993 430.346C87.3993 431.897 85.7107 432.858 84.3775 432.065L77.9066 428.219Z" fill="#8E8D92"/>
<path d="M88.3788 428.219C87.0746 427.444 87.0746 425.556 88.3788 424.781L94.8497 420.935C96.1828 420.142 97.8715 421.103 97.8715 422.654L97.8715 430.346C97.8715 431.897 96.1828 432.858 94.8497 432.065L88.3788 428.219Z" fill="#8E8D92"/>
<rect x="73" y="420.488" width="3.625" height="12.439" rx="1.8125" fill="#8E8D92"/>
<path d="M275.093 424.781C276.398 425.556 276.398 427.444 275.093 428.219L268.623 432.065C267.289 432.858 265.601 431.897 265.601 430.346L265.601 422.654C265.601 421.103 267.289 420.142 268.623 420.935L275.093 424.781Z" fill="#8E8D92"/>
<path d="M264.621 424.781C265.925 425.556 265.925 427.444 264.621 428.219L258.15 432.065C256.817 432.858 255.128 431.897 255.128 430.346L255.128 422.654C255.128 421.103 256.817 420.142 258.15 420.935L264.621 424.781Z" fill="#8E8D92"/>
<rect x="280" y="432.512" width="3.625" height="12.439" rx="1.8125" transform="rotate(-180 280 432.512)" fill="#8E8D92"/>
<path d="M178.894 518.771C180.22 519.542 180.22 521.458 178.894 522.229L170.722 526.98C169.389 527.755 167.717 526.793 167.717 525.251L167.717 515.749C167.717 514.207 169.389 513.245 170.722 514.02L178.894 518.771Z" fill="#8E8D92"/>
<rect x="187.859" y="514.263" width="4.14095" height="13.8997" rx="2" fill="#8E8D92"/>
<rect x="181.833" y="514.263" width="4.14095" height="13.8997" rx="2" fill="#8E8D92"/>
<rect x="41" y="36" width="272" height="220" rx="13" fill="white" stroke="black" stroke-width="6"/>
<path d="M44 49C44 42.9249 48.9249 38 55 38H299C305.075 38 310 42.9249 310 49V70H44V49Z" fill="#DEE1E0"/>
<path d="M59.648 59.084C59.088 59.084 58.584 58.988 58.136 58.796C57.688 58.596 57.336 58.316 57.08 57.956C56.824 57.596 56.696 57.176 56.696 56.696H58.16C58.192 57.056 58.332 57.352 58.58 57.584C58.836 57.816 59.192 57.932 59.648 57.932C60.12 57.932 60.488 57.82 60.752 57.596C61.016 57.364 61.148 57.068 61.148 56.708C61.148 56.428 61.064 56.2 60.896 56.024C60.736 55.848 60.532 55.712 60.284 55.616C60.044 55.52 59.708 55.416 59.276 55.304C58.732 55.16 58.288 55.016 57.944 54.872C57.608 54.72 57.32 54.488 57.08 54.176C56.84 53.864 56.72 53.448 56.72 52.928C56.72 52.448 56.84 52.028 57.08 51.668C57.32 51.308 57.656 51.032 58.088 50.84C58.52 50.648 59.02 50.552 59.588 50.552C60.396 50.552 61.056 50.756 61.568 51.164C62.088 51.564 62.376 52.116 62.432 52.82H60.92C60.896 52.516 60.752 52.256 60.488 52.04C60.224 51.824 59.876 51.716 59.444 51.716C59.052 51.716 58.732 51.816 58.484 52.016C58.236 52.216 58.112 52.504 58.112 52.88C58.112 53.136 58.188 53.348 58.34 53.516C58.5 53.676 58.7 53.804 58.94 53.9C59.18 53.996 59.508 54.1 59.924 54.212C60.476 54.364 60.924 54.516 61.268 54.668C61.62 54.82 61.916 55.056 62.156 55.376C62.404 55.688 62.528 56.108 62.528 56.636C62.528 57.06 62.412 57.46 62.18 57.836C61.956 58.212 61.624 58.516 61.184 58.748C60.752 58.972 60.24 59.084 59.648 59.084ZM67.0102 59.108C66.3862 59.108 65.8222 58.968 65.3182 58.688C64.8142 58.4 64.4182 58 64.1302 57.488C63.8422 56.968 63.6982 56.368 63.6982 55.688C63.6982 55.016 63.8462 54.42 64.1422 53.9C64.4382 53.38 64.8422 52.98 65.3542 52.7C65.8662 52.42 66.4382 52.28 67.0702 52.28C67.7022 52.28 68.2742 52.42 68.7862 52.7C69.2982 52.98 69.7022 53.38 69.9982 53.9C70.2942 54.42 70.4422 55.016 70.4422 55.688C70.4422 56.36 70.2902 56.956 69.9862 57.476C69.6822 57.996 69.2662 58.4 68.7382 58.688C68.2182 58.968 67.6422 59.108 67.0102 59.108ZM67.0102 57.92C67.3622 57.92 67.6902 57.836 67.9942 57.668C68.3062 57.5 68.5582 57.248 68.7502 56.912C68.9422 56.576 69.0382 56.168 69.0382 55.688C69.0382 55.208 68.9462 54.804 68.7622 54.476C68.5782 54.14 68.3342 53.888 68.0302 53.72C67.7262 53.552 67.3982 53.468 67.0462 53.468C66.6942 53.468 66.3662 53.552 66.0622 53.72C65.7662 53.888 65.5302 54.14 65.3542 54.476C65.1782 54.804 65.0902 55.208 65.0902 55.688C65.0902 56.4 65.2702 56.952 65.6302 57.344C65.9982 57.728 66.4582 57.92 67.0102 57.92ZM75.1305 52.28C75.6505 52.28 76.1145 52.388 76.5225 52.604C76.9385 52.82 77.2625 53.14 77.4945 53.564C77.7265 53.988 77.8425 54.5 77.8425 55.1V59H76.4865V55.304C76.4865 54.712 76.3385 54.26 76.0425 53.948C75.7465 53.628 75.3425 53.468 74.8305 53.468C74.3185 53.468 73.9105 53.628 73.6065 53.948C73.3105 54.26 73.1625 54.712 73.1625 55.304V59H71.7945V52.388H73.1625V53.144C73.3865 52.872 73.6705 52.66 74.0145 52.508C74.3665 52.356 74.7385 52.28 75.1305 52.28ZM82.2515 52.28C82.7635 52.28 83.2155 52.384 83.6075 52.592C84.0075 52.792 84.3195 53.044 84.5435 53.348V52.388H85.9235V59.108C85.9235 59.716 85.7955 60.256 85.5395 60.728C85.2835 61.208 84.9115 61.584 84.4235 61.856C83.9435 62.128 83.3675 62.264 82.6955 62.264C81.7995 62.264 81.0555 62.052 80.4635 61.628C79.8715 61.212 79.5355 60.644 79.4555 59.924H80.8115C80.9155 60.268 81.1355 60.544 81.4715 60.752C81.8155 60.968 82.2235 61.076 82.6955 61.076C83.2475 61.076 83.6915 60.908 84.0275 60.572C84.3715 60.236 84.5435 59.748 84.5435 59.108V58.004C84.3115 58.316 83.9955 58.58 83.5955 58.796C83.2035 59.004 82.7555 59.108 82.2515 59.108C81.6755 59.108 81.1475 58.964 80.6675 58.676C80.1955 58.38 79.8195 57.972 79.5395 57.452C79.2675 56.924 79.1315 56.328 79.1315 55.664C79.1315 55 79.2675 54.412 79.5395 53.9C79.8195 53.388 80.1955 52.992 80.6675 52.712C81.1475 52.424 81.6755 52.28 82.2515 52.28ZM84.5435 55.688C84.5435 55.232 84.4475 54.836 84.2555 54.5C84.0715 54.164 83.8275 53.908 83.5235 53.732C83.2195 53.556 82.8915 53.468 82.5395 53.468C82.1875 53.468 81.8595 53.556 81.5555 53.732C81.2515 53.9 81.0035 54.152 80.8115 54.488C80.6275 54.816 80.5355 55.208 80.5355 55.664C80.5355 56.12 80.6275 56.52 80.8115 56.864C81.0035 57.208 81.2515 57.472 81.5555 57.656C81.8675 57.832 82.1955 57.92 82.5395 57.92C82.8915 57.92 83.2195 57.832 83.5235 57.656C83.8275 57.48 84.0715 57.224 84.2555 56.888C84.4475 56.544 84.5435 56.144 84.5435 55.688ZM90.1203 59.108C89.6003 59.108 89.1323 59.016 88.7163 58.832C88.3083 58.64 87.9843 58.384 87.7443 58.064C87.5043 57.736 87.3763 57.372 87.3603 56.972H88.7763C88.8003 57.252 88.9323 57.488 89.1723 57.68C89.4203 57.864 89.7283 57.956 90.0963 57.956C90.4803 57.956 90.7763 57.884 90.9843 57.74C91.2003 57.588 91.3083 57.396 91.3083 57.164C91.3083 56.916 91.1883 56.732 90.9483 56.612C90.7163 56.492 90.3443 56.36 89.8323 56.216C89.3363 56.08 88.9323 55.948 88.6203 55.82C88.3083 55.692 88.0363 55.496 87.8043 55.232C87.5803 54.968 87.4683 54.62 87.4683 54.188C87.4683 53.836 87.5723 53.516 87.7803 53.228C87.9883 52.932 88.2843 52.7 88.6683 52.532C89.0603 52.364 89.5083 52.28 90.0123 52.28C90.7643 52.28 91.3683 52.472 91.8243 52.856C92.2883 53.232 92.5363 53.748 92.5683 54.404H91.2003C91.1763 54.108 91.0563 53.872 90.8403 53.696C90.6243 53.52 90.3323 53.432 89.9643 53.432C89.6043 53.432 89.3283 53.5 89.1363 53.636C88.9443 53.772 88.8483 53.952 88.8483 54.176C88.8483 54.352 88.9123 54.5 89.0403 54.62C89.1683 54.74 89.3243 54.836 89.5083 54.908C89.6923 54.972 89.9643 55.056 90.3243 55.16C90.8043 55.288 91.1963 55.42 91.5003 55.556C91.8123 55.684 92.0803 55.876 92.3043 56.132C92.5283 56.388 92.6443 56.728 92.6523 57.152C92.6523 57.528 92.5483 57.864 92.3403 58.16C92.1323 58.456 91.8363 58.688 91.4523 58.856C91.0763 59.024 90.6323 59.108 90.1203 59.108Z" fill="black"/>
<rect width="266" height="34" transform="translate(44 70)" fill="url(#paint2_linear_6510_171)"/>
<path d="M59.624 82.66C60.512 82.66 61.288 82.832 61.952 83.176C62.624 83.512 63.14 84 63.5 84.64C63.868 85.272 64.052 86.012 64.052 86.86C64.052 87.708 63.868 88.444 63.5 89.068C63.14 89.692 62.624 90.172 61.952 90.508C61.288 90.836 60.512 91 59.624 91H56.9V82.66H59.624ZM59.624 89.884C60.6 89.884 61.348 89.62 61.868 89.092C62.388 88.564 62.648 87.82 62.648 86.86C62.648 85.892 62.388 85.136 61.868 84.592C61.348 84.048 60.6 83.776 59.624 83.776H58.268V89.884H59.624ZM68.2758 91.108C67.6518 91.108 67.0878 90.968 66.5838 90.688C66.0798 90.4 65.6838 90 65.3958 89.488C65.1078 88.968 64.9638 88.368 64.9638 87.688C64.9638 87.016 65.1118 86.42 65.4078 85.9C65.7038 85.38 66.1078 84.98 66.6198 84.7C67.1318 84.42 67.7038 84.28 68.3358 84.28C68.9678 84.28 69.5398 84.42 70.0518 84.7C70.5638 84.98 70.9678 85.38 71.2638 85.9C71.5598 86.42 71.7078 87.016 71.7078 87.688C71.7078 88.36 71.5558 88.956 71.2518 89.476C70.9478 89.996 70.5318 90.4 70.0038 90.688C69.4838 90.968 68.9078 91.108 68.2758 91.108ZM68.2758 89.92C68.6278 89.92 68.9558 89.836 69.2598 89.668C69.5718 89.5 69.8238 89.248 70.0158 88.912C70.2078 88.576 70.3038 88.168 70.3038 87.688C70.3038 87.208 70.2118 86.804 70.0278 86.476C69.8438 86.14 69.5998 85.888 69.2958 85.72C68.9918 85.552 68.6638 85.468 68.3118 85.468C67.9598 85.468 67.6318 85.552 67.3278 85.72C67.0318 85.888 66.7958 86.14 66.6198 86.476C66.4438 86.804 66.3558 87.208 66.3558 87.688C66.3558 88.4 66.5358 88.952 66.8958 89.344C67.2638 89.728 67.7238 89.92 68.2758 89.92ZM75.6162 89.776L77.4882 84.388H78.9402L76.4202 91H74.7882L72.2802 84.388H73.7442L75.6162 89.776ZM86.0342 87.532C86.0342 87.78 86.0182 88.004 85.9862 88.204H80.9342C80.9742 88.732 81.1702 89.156 81.5222 89.476C81.8742 89.796 82.3062 89.956 82.8182 89.956C83.5542 89.956 84.0742 89.648 84.3782 89.032H85.8542C85.6542 89.64 85.2902 90.14 84.7622 90.532C84.2422 90.916 83.5942 91.108 82.8182 91.108C82.1862 91.108 81.6182 90.968 81.1142 90.688C80.6182 90.4 80.2262 90 79.9382 89.488C79.6582 88.968 79.5182 88.368 79.5182 87.688C79.5182 87.008 79.6542 86.412 79.9262 85.9C80.2062 85.38 80.5942 84.98 81.0902 84.7C81.5942 84.42 82.1702 84.28 82.8182 84.28C83.4422 84.28 83.9982 84.416 84.4862 84.688C84.9742 84.96 85.3542 85.344 85.6262 85.84C85.8982 86.328 86.0342 86.892 86.0342 87.532ZM84.6062 87.1C84.5982 86.596 84.4182 86.192 84.0662 85.888C83.7142 85.584 83.2782 85.432 82.7582 85.432C82.2862 85.432 81.8822 85.584 81.5462 85.888C81.2102 86.184 81.0102 86.588 80.9462 87.1H84.6062ZM95.5737 86.08V87.232H90.6417V86.08H95.5737ZM106.466 85.144C106.466 85.568 106.366 85.968 106.166 86.344C105.966 86.72 105.646 87.028 105.206 87.268C104.766 87.5 104.202 87.616 103.514 87.616H102.002V91H100.634V82.66H103.514C104.154 82.66 104.694 82.772 105.134 82.996C105.582 83.212 105.914 83.508 106.13 83.884C106.354 84.26 106.466 84.68 106.466 85.144ZM103.514 86.5C104.034 86.5 104.422 86.384 104.678 86.152C104.934 85.912 105.062 85.576 105.062 85.144C105.062 84.232 104.546 83.776 103.514 83.776H102.002V86.5H103.514ZM108.467 83.512C108.219 83.512 108.011 83.428 107.843 83.26C107.675 83.092 107.591 82.884 107.591 82.636C107.591 82.388 107.675 82.18 107.843 82.012C108.011 81.844 108.219 81.76 108.467 81.76C108.707 81.76 108.911 81.844 109.079 82.012C109.247 82.18 109.331 82.388 109.331 82.636C109.331 82.884 109.247 83.092 109.079 83.26C108.911 83.428 108.707 83.512 108.467 83.512ZM109.139 84.388V91H107.771V84.388H109.139ZM112.303 82.12V91H110.935V82.12H112.303ZM115.467 82.12V91H114.099V82.12H115.467ZM116.807 87.664C116.807 87 116.943 86.412 117.215 85.9C117.495 85.388 117.871 84.992 118.343 84.712C118.823 84.424 119.351 84.28 119.927 84.28C120.447 84.28 120.899 84.384 121.283 84.592C121.675 84.792 121.987 85.044 122.219 85.348V84.388H123.599V91H122.219V90.016C121.987 90.328 121.671 90.588 121.271 90.796C120.871 91.004 120.415 91.108 119.903 91.108C119.335 91.108 118.815 90.964 118.343 90.676C117.871 90.38 117.495 89.972 117.215 89.452C116.943 88.924 116.807 88.328 116.807 87.664ZM122.219 87.688C122.219 87.232 122.123 86.836 121.931 86.5C121.747 86.164 121.503 85.908 121.199 85.732C120.895 85.556 120.567 85.468 120.215 85.468C119.863 85.468 119.535 85.556 119.231 85.732C118.927 85.9 118.679 86.152 118.487 86.488C118.303 86.816 118.211 87.208 118.211 87.664C118.211 88.12 118.303 88.52 118.487 88.864C118.679 89.208 118.927 89.472 119.231 89.656C119.543 89.832 119.871 89.92 120.215 89.92C120.567 89.92 120.895 89.832 121.199 89.656C121.503 89.48 121.747 89.224 121.931 88.888C122.123 88.544 122.219 88.144 122.219 87.688ZM126.764 85.348C126.964 85.012 127.228 84.752 127.556 84.568C127.892 84.376 128.288 84.28 128.744 84.28V85.696H128.396C127.86 85.696 127.452 85.832 127.172 86.104C126.9 86.376 126.764 86.848 126.764 87.52V91H125.396V84.388H126.764V85.348ZM138.951 85.144C138.951 85.568 138.851 85.968 138.651 86.344C138.451 86.72 138.131 87.028 137.691 87.268C137.251 87.5 136.687 87.616 135.999 87.616H134.487V91H133.119V82.66H135.999C136.639 82.66 137.179 82.772 137.619 82.996C138.067 83.212 138.399 83.508 138.615 83.884C138.839 84.26 138.951 84.68 138.951 85.144ZM135.999 86.5C136.519 86.5 136.907 86.384 137.163 86.152C137.419 85.912 137.547 85.576 137.547 85.144C137.547 84.232 137.031 83.776 135.999 83.776H134.487V86.5H135.999ZM143.123 91.108C142.499 91.108 141.935 90.968 141.431 90.688C140.927 90.4 140.531 90 140.243 89.488C139.955 88.968 139.811 88.368 139.811 87.688C139.811 87.016 139.959 86.42 140.255 85.9C140.551 85.38 140.955 84.98 141.467 84.7C141.979 84.42 142.551 84.28 143.183 84.28C143.815 84.28 144.387 84.42 144.899 84.7C145.411 84.98 145.815 85.38 146.111 85.9C146.407 86.42 146.555 87.016 146.555 87.688C146.555 88.36 146.403 88.956 146.099 89.476C145.795 89.996 145.379 90.4 144.851 90.688C144.331 90.968 143.755 91.108 143.123 91.108ZM143.123 89.92C143.475 89.92 143.803 89.836 144.107 89.668C144.419 89.5 144.671 89.248 144.863 88.912C145.055 88.576 145.151 88.168 145.151 87.688C145.151 87.208 145.059 86.804 144.875 86.476C144.691 86.14 144.447 85.888 144.143 85.72C143.839 85.552 143.511 85.468 143.159 85.468C142.807 85.468 142.479 85.552 142.175 85.72C141.879 85.888 141.643 86.14 141.467 86.476C141.291 86.804 141.203 87.208 141.203 87.688C141.203 88.4 141.383 88.952 141.743 89.344C142.111 89.728 142.571 89.92 143.123 89.92ZM148.604 83.512C148.356 83.512 148.148 83.428 147.98 83.26C147.812 83.092 147.728 82.884 147.728 82.636C147.728 82.388 147.812 82.18 147.98 82.012C148.148 81.844 148.356 81.76 148.604 81.76C148.844 81.76 149.048 81.844 149.216 82.012C149.384 82.18 149.468 82.388 149.468 82.636C149.468 82.884 149.384 83.092 149.216 83.26C149.048 83.428 148.844 83.512 148.604 83.512ZM149.276 84.388V91H147.908V84.388H149.276ZM154.408 84.28C154.928 84.28 155.392 84.388 155.8 84.604C156.216 84.82 156.54 85.14 156.772 85.564C157.004 85.988 157.12 86.5 157.12 87.1V91H155.764V87.304C155.764 86.712 155.616 86.26 155.32 85.948C155.024 85.628 154.62 85.468 154.108 85.468C153.596 85.468 153.188 85.628 152.884 85.948C152.588 86.26 152.44 86.712 152.44 87.304V91H151.072V84.388H152.44V85.144C152.664 84.872 152.948 84.66 153.292 84.508C153.644 84.356 154.016 84.28 154.408 84.28ZM160.461 85.504V89.164C160.461 89.412 160.517 89.592 160.629 89.704C160.749 89.808 160.949 89.86 161.229 89.86H162.069V91H160.989C160.373 91 159.901 90.856 159.573 90.568C159.245 90.28 159.081 89.812 159.081 89.164V85.504H158.301V84.388H159.081V82.744H160.461V84.388H162.069V85.504H160.461Z" fill="white"/>
<path d="M299.061 88.0607C299.646 87.4749 299.646 86.5251 299.061 85.9393L289.515 76.3934C288.929 75.8076 287.979 75.8076 287.393 76.3934C286.808 76.9792 286.808 77.9289 287.393 78.5147L295.879 87L287.393 95.4853C286.808 96.0711 286.808 97.0208 287.393 97.6066C287.979 98.1924 288.929 98.1924 289.515 97.6066L299.061 88.0607ZM297 87L297 88.5L298 88.5L298 87L298 85.5L297 85.5L297 87Z" fill="white"/>
<rect width="266" height="34" transform="translate(44 104)" fill="white"/>
<path d="M56.444 120.812C56.444 119.996 56.632 119.264 57.008 118.616C57.392 117.968 57.908 117.464 58.556 117.104C59.212 116.736 59.928 116.552 60.704 116.552C61.592 116.552 62.38 116.772 63.068 117.212C63.764 117.644 64.268 118.26 64.58 119.06H62.936C62.72 118.62 62.42 118.292 62.036 118.076C61.652 117.86 61.208 117.752 60.704 117.752C60.152 117.752 59.66 117.876 59.228 118.124C58.796 118.372 58.456 118.728 58.208 119.192C57.968 119.656 57.848 120.196 57.848 120.812C57.848 121.428 57.968 121.968 58.208 122.432C58.456 122.896 58.796 123.256 59.228 123.512C59.66 123.76 60.152 123.884 60.704 123.884C61.208 123.884 61.652 123.776 62.036 123.56C62.42 123.344 62.72 123.016 62.936 122.576H64.58C64.268 123.376 63.764 123.992 63.068 124.424C62.38 124.856 61.592 125.072 60.704 125.072C59.92 125.072 59.204 124.892 58.556 124.532C57.908 124.164 57.392 123.656 57.008 123.008C56.632 122.36 56.444 121.628 56.444 120.812ZM67.5493 116.12V125H66.1813V116.12H67.5493ZM72.2133 125.108C71.5893 125.108 71.0253 124.968 70.5213 124.688C70.0173 124.4 69.6213 124 69.3333 123.488C69.0453 122.968 68.9013 122.368 68.9013 121.688C68.9013 121.016 69.0493 120.42 69.3453 119.9C69.6413 119.38 70.0453 118.98 70.5573 118.7C71.0693 118.42 71.6413 118.28 72.2733 118.28C72.9053 118.28 73.4773 118.42 73.9893 118.7C74.5013 118.98 74.9053 119.38 75.2013 119.9C75.4973 120.42 75.6453 121.016 75.6453 121.688C75.6453 122.36 75.4933 122.956 75.1893 123.476C74.8853 123.996 74.4693 124.4 73.9413 124.688C73.4213 124.968 72.8453 125.108 72.2133 125.108ZM72.2133 123.92C72.5653 123.92 72.8933 123.836 73.1973 123.668C73.5093 123.5 73.7613 123.248 73.9533 122.912C74.1453 122.576 74.2413 122.168 74.2413 121.688C74.2413 121.208 74.1493 120.804 73.9653 120.476C73.7813 120.14 73.5373 119.888 73.2333 119.72C72.9293 119.552 72.6013 119.468 72.2493 119.468C71.8973 119.468 71.5693 119.552 71.2653 119.72C70.9693 119.888 70.7333 120.14 70.5573 120.476C70.3813 120.804 70.2933 121.208 70.2933 121.688C70.2933 122.4 70.4733 122.952 70.8333 123.344C71.2013 123.728 71.6613 123.92 72.2133 123.92ZM76.5417 121.688C76.5417 121.008 76.6777 120.412 76.9497 119.9C77.2297 119.38 77.6137 118.98 78.1017 118.7C78.5897 118.42 79.1497 118.28 79.7817 118.28C80.5817 118.28 81.2417 118.472 81.7617 118.856C82.2897 119.232 82.6457 119.772 82.8297 120.476H81.3537C81.2337 120.148 81.0417 119.892 80.7777 119.708C80.5137 119.524 80.1817 119.432 79.7817 119.432C79.2217 119.432 78.7737 119.632 78.4377 120.032C78.1097 120.424 77.9457 120.976 77.9457 121.688C77.9457 122.4 78.1097 122.956 78.4377 123.356C78.7737 123.756 79.2217 123.956 79.7817 123.956C80.5737 123.956 81.0977 123.608 81.3537 122.912H82.8297C82.6377 123.584 82.2777 124.12 81.7497 124.52C81.2217 124.912 80.5657 125.108 79.7817 125.108C79.1497 125.108 78.5897 124.968 78.1017 124.688C77.6137 124.4 77.2297 124 76.9497 123.488C76.6777 122.968 76.5417 122.368 76.5417 121.688ZM86.809 121.7L89.857 125H88.009L85.561 122.156V125H84.193V116.12H85.561V121.28L87.961 118.388H89.857L86.809 121.7ZM93.2375 125.108C92.7175 125.108 92.2495 125.016 91.8335 124.832C91.4255 124.64 91.1015 124.384 90.8615 124.064C90.6215 123.736 90.4935 123.372 90.4775 122.972H91.8935C91.9175 123.252 92.0495 123.488 92.2895 123.68C92.5375 123.864 92.8455 123.956 93.2135 123.956C93.5975 123.956 93.8935 123.884 94.1015 123.74C94.3175 123.588 94.4255 123.396 94.4255 123.164C94.4255 122.916 94.3055 122.732 94.0655 122.612C93.8335 122.492 93.4615 122.36 92.9495 122.216C92.4535 122.08 92.0495 121.948 91.7375 121.82C91.4255 121.692 91.1535 121.496 90.9215 121.232C90.6975 120.968 90.5855 120.62 90.5855 120.188C90.5855 119.836 90.6895 119.516 90.8975 119.228C91.1055 118.932 91.4015 118.7 91.7855 118.532C92.1775 118.364 92.6255 118.28 93.1295 118.28C93.8815 118.28 94.4855 118.472 94.9415 118.856C95.4055 119.232 95.6535 119.748 95.6855 120.404H94.3175C94.2935 120.108 94.1735 119.872 93.9575 119.696C93.7415 119.52 93.4495 119.432 93.0815 119.432C92.7215 119.432 92.4455 119.5 92.2535 119.636C92.0615 119.772 91.9655 119.952 91.9655 120.176C91.9655 120.352 92.0295 120.5 92.1575 120.62C92.2855 120.74 92.4415 120.836 92.6255 120.908C92.8095 120.972 93.0815 121.056 93.4415 121.16C93.9215 121.288 94.3135 121.42 94.6175 121.556C94.9295 121.684 95.1975 121.876 95.4215 122.132C95.6455 122.388 95.7615 122.728 95.7695 123.152C95.7695 123.528 95.6655 123.864 95.4575 124.16C95.2495 124.456 94.9535 124.688 94.5695 124.856C94.1935 125.024 93.7495 125.108 93.2375 125.108Z" fill="black"/>
<rect width="266" height="34" transform="translate(44 138)" fill="white"/>
<path d="M59.648 159.084C59.088 159.084 58.584 158.988 58.136 158.796C57.688 158.596 57.336 158.316 57.08 157.956C56.824 157.596 56.696 157.176 56.696 156.696H58.16C58.192 157.056 58.332 157.352 58.58 157.584C58.836 157.816 59.192 157.932 59.648 157.932C60.12 157.932 60.488 157.82 60.752 157.596C61.016 157.364 61.148 157.068 61.148 156.708C61.148 156.428 61.064 156.2 60.896 156.024C60.736 155.848 60.532 155.712 60.284 155.616C60.044 155.52 59.708 155.416 59.276 155.304C58.732 155.16 58.288 155.016 57.944 154.872C57.608 154.72 57.32 154.488 57.08 154.176C56.84 153.864 56.72 153.448 56.72 152.928C56.72 152.448 56.84 152.028 57.08 151.668C57.32 151.308 57.656 151.032 58.088 150.84C58.52 150.648 59.02 150.552 59.588 150.552C60.396 150.552 61.056 150.756 61.568 151.164C62.088 151.564 62.376 152.116 62.432 152.82H60.92C60.896 152.516 60.752 152.256 60.488 152.04C60.224 151.824 59.876 151.716 59.444 151.716C59.052 151.716 58.732 151.816 58.484 152.016C58.236 152.216 58.112 152.504 58.112 152.88C58.112 153.136 58.188 153.348 58.34 153.516C58.5 153.676 58.7 153.804 58.94 153.9C59.18 153.996 59.508 154.1 59.924 154.212C60.476 154.364 60.924 154.516 61.268 154.668C61.62 154.82 61.916 155.056 62.156 155.376C62.404 155.688 62.528 156.108 62.528 156.636C62.528 157.06 62.412 157.46 62.18 157.836C61.956 158.212 61.624 158.516 61.184 158.748C60.752 158.972 60.24 159.084 59.648 159.084ZM65.5102 153.36C65.7422 153.056 66.0582 152.8 66.4582 152.592C66.8582 152.384 67.3102 152.28 67.8142 152.28C68.3902 152.28 68.9142 152.424 69.3862 152.712C69.8662 152.992 70.2422 153.388 70.5142 153.9C70.7862 154.412 70.9222 155 70.9222 155.664C70.9222 156.328 70.7862 156.924 70.5142 157.452C70.2422 157.972 69.8662 158.38 69.3862 158.676C68.9142 158.964 68.3902 159.108 67.8142 159.108C67.3102 159.108 66.8622 159.008 66.4702 158.808C66.0782 158.6 65.7582 158.344 65.5102 158.04V162.144H64.1422V152.388H65.5102V153.36ZM69.5302 155.664C69.5302 155.208 69.4342 154.816 69.2422 154.488C69.0582 154.152 68.8102 153.9 68.4982 153.732C68.1942 153.556 67.8662 153.468 67.5142 153.468C67.1702 153.468 66.8422 153.556 66.5302 153.732C66.2262 153.908 65.9782 154.164 65.7862 154.5C65.6022 154.836 65.5102 155.232 65.5102 155.688C65.5102 156.144 65.6022 156.544 65.7862 156.888C65.9782 157.224 66.2262 157.48 66.5302 157.656C66.8422 157.832 67.1702 157.92 67.5142 157.92C67.8662 157.92 68.1942 157.832 68.4982 157.656C68.8102 157.472 69.0582 157.208 69.2422 156.864C69.4342 156.52 69.5302 156.12 69.5302 155.664ZM71.819 155.664C71.819 155 71.955 154.412 72.227 153.9C72.507 153.388 72.883 152.992 73.355 152.712C73.835 152.424 74.363 152.28 74.939 152.28C75.459 152.28 75.911 152.384 76.295 152.592C76.687 152.792 76.999 153.044 77.231 153.348V152.388H78.611V159H77.231V158.016C76.999 158.328 76.683 158.588 76.283 158.796C75.883 159.004 75.427 159.108 74.915 159.108C74.347 159.108 73.827 158.964 73.355 158.676C72.883 158.38 72.507 157.972 72.227 157.452C71.955 156.924 71.819 156.328 71.819 155.664ZM77.231 155.688C77.231 155.232 77.135 154.836 76.943 154.5C76.759 154.164 76.515 153.908 76.211 153.732C75.907 153.556 75.579 153.468 75.227 153.468C74.875 153.468 74.547 153.556 74.243 153.732C73.939 153.9 73.691 154.152 73.499 154.488C73.315 154.816 73.223 155.208 73.223 155.664C73.223 156.12 73.315 156.52 73.499 156.864C73.691 157.208 73.939 157.472 74.243 157.656C74.555 157.832 74.883 157.92 75.227 157.92C75.579 157.92 75.907 157.832 76.211 157.656C76.515 157.48 76.759 157.224 76.943 156.888C77.135 156.544 77.231 156.144 77.231 155.688ZM79.9518 155.688C79.9518 155.008 80.0878 154.412 80.3598 153.9C80.6398 153.38 81.0238 152.98 81.5118 152.7C81.9998 152.42 82.5598 152.28 83.1918 152.28C83.9918 152.28 84.6518 152.472 85.1718 152.856C85.6998 153.232 86.0558 153.772 86.2398 154.476H84.7638C84.6438 154.148 84.4518 153.892 84.1878 153.708C83.9238 153.524 83.5918 153.432 83.1918 153.432C82.6318 153.432 82.1838 153.632 81.8478 154.032C81.5198 154.424 81.3558 154.976 81.3558 155.688C81.3558 156.4 81.5198 156.956 81.8478 157.356C82.1838 157.756 82.6318 157.956 83.1918 157.956C83.9838 157.956 84.5078 157.608 84.7638 156.912H86.2398C86.0478 157.584 85.6878 158.12 85.1598 158.52C84.6318 158.912 83.9758 159.108 83.1918 159.108C82.5598 159.108 81.9998 158.968 81.5118 158.688C81.0238 158.4 80.6398 158 80.3598 157.488C80.0878 156.968 79.9518 156.368 79.9518 155.688ZM93.6631 155.532C93.6631 155.78 93.6471 156.004 93.6151 156.204H88.5631C88.6031 156.732 88.7991 157.156 89.1511 157.476C89.5031 157.796 89.9351 157.956 90.4471 157.956C91.1831 157.956 91.7031 157.648 92.0071 157.032H93.4831C93.2831 157.64 92.9191 158.14 92.3911 158.532C91.8711 158.916 91.2231 159.108 90.4471 159.108C89.8151 159.108 89.2471 158.968 88.7431 158.688C88.2471 158.4 87.8551 158 87.5671 157.488C87.2871 156.968 87.1471 156.368 87.1471 155.688C87.1471 155.008 87.2831 154.412 87.5551 153.9C87.8351 153.38 88.2231 152.98 88.7191 152.7C89.2231 152.42 89.7991 152.28 90.4471 152.28C91.0711 152.28 91.6271 152.416 92.1151 152.688C92.6031 152.96 92.9831 153.344 93.2551 153.84C93.5271 154.328 93.6631 154.892 93.6631 155.532ZM92.2351 155.1C92.2271 154.596 92.0471 154.192 91.6951 153.888C91.3431 153.584 90.9071 153.432 90.3871 153.432C89.9151 153.432 89.5111 153.584 89.1751 153.888C88.8391 154.184 88.6391 154.588 88.5751 155.1H92.2351ZM100.875 159.084C100.315 159.084 99.8106 158.988 99.3626 158.796C98.9146 158.596 98.5626 158.316 98.3066 157.956C98.0506 157.596 97.9226 157.176 97.9226 156.696H99.3866C99.4186 157.056 99.5586 157.352 99.8066 157.584C100.063 157.816 100.419 157.932 100.875 157.932C101.347 157.932 101.715 157.82 101.979 157.596C102.243 157.364 102.375 157.068 102.375 156.708C102.375 156.428 102.291 156.2 102.123 156.024C101.963 155.848 101.759 155.712 101.511 155.616C101.271 155.52 100.935 155.416 100.503 155.304C99.9586 155.16 99.5146 155.016 99.1706 154.872C98.8346 154.72 98.5466 154.488 98.3066 154.176C98.0666 153.864 97.9466 153.448 97.9466 152.928C97.9466 152.448 98.0666 152.028 98.3066 151.668C98.5466 151.308 98.8826 151.032 99.3146 150.84C99.7466 150.648 100.247 150.552 100.815 150.552C101.623 150.552 102.283 150.756 102.795 151.164C103.315 151.564 103.603 152.116 103.659 152.82H102.147C102.123 152.516 101.979 152.256 101.715 152.04C101.451 151.824 101.103 151.716 100.671 151.716C100.279 151.716 99.9586 151.816 99.7106 152.016C99.4626 152.216 99.3386 152.504 99.3386 152.88C99.3386 153.136 99.4146 153.348 99.5666 153.516C99.7266 153.676 99.9266 153.804 100.167 153.9C100.407 153.996 100.735 154.1 101.151 154.212C101.703 154.364 102.151 154.516 102.495 154.668C102.847 154.82 103.143 155.056 103.383 155.376C103.631 155.688 103.755 156.108 103.755 156.636C103.755 157.06 103.639 157.46 103.407 157.836C103.183 158.212 102.851 158.516 102.411 158.748C101.979 158.972 101.467 159.084 100.875 159.084ZM108.237 159.108C107.613 159.108 107.049 158.968 106.545 158.688C106.041 158.4 105.645 158 105.357 157.488C105.069 156.968 104.925 156.368 104.925 155.688C104.925 155.016 105.073 154.42 105.369 153.9C105.665 153.38 106.069 152.98 106.581 152.7C107.093 152.42 107.665 152.28 108.297 152.28C108.929 152.28 109.501 152.42 110.013 152.7C110.525 152.98 110.929 153.38 111.225 153.9C111.521 154.42 111.669 155.016 111.669 155.688C111.669 156.36 111.517 156.956 111.213 157.476C110.909 157.996 110.493 158.4 109.965 158.688C109.445 158.968 108.869 159.108 108.237 159.108ZM108.237 157.92C108.589 157.92 108.917 157.836 109.221 157.668C109.533 157.5 109.785 157.248 109.977 156.912C110.169 156.576 110.265 156.168 110.265 155.688C110.265 155.208 110.173 154.804 109.989 154.476C109.805 154.14 109.561 153.888 109.257 153.72C108.953 153.552 108.625 153.468 108.273 153.468C107.921 153.468 107.593 153.552 107.289 153.72C106.993 153.888 106.757 154.14 106.581 154.476C106.405 154.804 106.317 155.208 106.317 155.688C106.317 156.4 106.497 156.952 106.857 157.344C107.225 157.728 107.685 157.92 108.237 157.92ZM116.357 152.28C116.877 152.28 117.341 152.388 117.749 152.604C118.165 152.82 118.489 153.14 118.721 153.564C118.953 153.988 119.069 154.5 119.069 155.1V159H117.713V155.304C117.713 154.712 117.565 154.26 117.269 153.948C116.973 153.628 116.569 153.468 116.057 153.468C115.545 153.468 115.137 153.628 114.833 153.948C114.537 154.26 114.389 154.712 114.389 155.304V159H113.021V152.388H114.389V153.144C114.613 152.872 114.897 152.66 115.241 152.508C115.593 152.356 115.965 152.28 116.357 152.28ZM123.478 152.28C123.99 152.28 124.442 152.384 124.834 152.592C125.234 152.792 125.546 153.044 125.77 153.348V152.388H127.15V159.108C127.15 159.716 127.022 160.256 126.766 160.728C126.51 161.208 126.138 161.584 125.65 161.856C125.17 162.128 124.594 162.264 123.922 162.264C123.026 162.264 122.282 162.052 121.69 161.628C121.098 161.212 120.762 160.644 120.682 159.924H122.038C122.142 160.268 122.362 160.544 122.698 160.752C123.042 160.968 123.45 161.076 123.922 161.076C124.474 161.076 124.918 160.908 125.254 160.572C125.598 160.236 125.77 159.748 125.77 159.108V158.004C125.538 158.316 125.222 158.58 124.822 158.796C124.43 159.004 123.982 159.108 123.478 159.108C122.902 159.108 122.374 158.964 121.894 158.676C121.422 158.38 121.046 157.972 120.766 157.452C120.494 156.924 120.358 156.328 120.358 155.664C120.358 155 120.494 154.412 120.766 153.9C121.046 153.388 121.422 152.992 121.894 152.712C122.374 152.424 122.902 152.28 123.478 152.28ZM125.77 155.688C125.77 155.232 125.674 154.836 125.482 154.5C125.298 154.164 125.054 153.908 124.75 153.732C124.446 153.556 124.118 153.468 123.766 153.468C123.414 153.468 123.086 153.556 122.782 153.732C122.478 153.9 122.23 154.152 122.038 154.488C121.854 154.816 121.762 155.208 121.762 155.664C121.762 156.12 121.854 156.52 122.038 156.864C122.23 157.208 122.478 157.472 122.782 157.656C123.094 157.832 123.422 157.92 123.766 157.92C124.118 157.92 124.446 157.832 124.75 157.656C125.054 157.48 125.298 157.224 125.482 156.888C125.674 156.544 125.77 156.144 125.77 155.688Z" fill="black"/>
<rect width="266" height="34" transform="translate(44 172)" fill="white"/>
<path d="M61.808 184.66V185.776H58.268V188.236H61.028V189.352H58.268V193H56.9V184.66H61.808ZM64.4438 184.12V193H63.0758V184.12H64.4438ZM72.2278 186.388V193H70.8598V192.22C70.6438 192.492 70.3598 192.708 70.0078 192.868C69.6638 193.02 69.2958 193.096 68.9038 193.096C68.3838 193.096 67.9158 192.988 67.4998 192.772C67.0918 192.556 66.7678 192.236 66.5278 191.812C66.2958 191.388 66.1798 190.876 66.1798 190.276V186.388H67.5358V190.072C67.5358 190.664 67.6838 191.12 67.9798 191.44C68.2758 191.752 68.6798 191.908 69.1918 191.908C69.7038 191.908 70.1078 191.752 70.4038 191.44C70.7078 191.12 70.8598 190.664 70.8598 190.072V186.388H72.2278ZM76.9008 193.108C76.2768 193.108 75.7128 192.968 75.2088 192.688C74.7048 192.4 74.3088 192 74.0208 191.488C73.7328 190.968 73.5888 190.368 73.5888 189.688C73.5888 189.016 73.7368 188.42 74.0328 187.9C74.3288 187.38 74.7328 186.98 75.2448 186.7C75.7568 186.42 76.3288 186.28 76.9608 186.28C77.5928 186.28 78.1648 186.42 78.6768 186.7C79.1888 186.98 79.5928 187.38 79.8888 187.9C80.1848 188.42 80.3328 189.016 80.3328 189.688C80.3328 190.36 80.1808 190.956 79.8768 191.476C79.5728 191.996 79.1568 192.4 78.6288 192.688C78.1088 192.968 77.5328 193.108 76.9008 193.108ZM76.9008 191.92C77.2528 191.92 77.5808 191.836 77.8848 191.668C78.1968 191.5 78.4488 191.248 78.6408 190.912C78.8328 190.576 78.9288 190.168 78.9288 189.688C78.9288 189.208 78.8368 188.804 78.6528 188.476C78.4688 188.14 78.2248 187.888 77.9208 187.72C77.6168 187.552 77.2888 187.468 76.9368 187.468C76.5848 187.468 76.2568 187.552 75.9528 187.72C75.6568 187.888 75.4208 188.14 75.2448 188.476C75.0688 188.804 74.9808 189.208 74.9808 189.688C74.9808 190.4 75.1608 190.952 75.5208 191.344C75.8888 191.728 76.3488 191.92 76.9008 191.92ZM83.0532 187.348C83.2532 187.012 83.5172 186.752 83.8452 186.568C84.1812 186.376 84.5772 186.28 85.0332 186.28V187.696H84.6852C84.1492 187.696 83.7412 187.832 83.4612 188.104C83.1892 188.376 83.0532 188.848 83.0532 189.52V193H81.6852V186.388H83.0532V187.348ZM92.3506 189.532C92.3506 189.78 92.3346 190.004 92.3026 190.204H87.2506C87.2906 190.732 87.4866 191.156 87.8386 191.476C88.1906 191.796 88.6226 191.956 89.1346 191.956C89.8706 191.956 90.3906 191.648 90.6946 191.032H92.1706C91.9706 191.64 91.6066 192.14 91.0786 192.532C90.5586 192.916 89.9106 193.108 89.1346 193.108C88.5026 193.108 87.9346 192.968 87.4306 192.688C86.9346 192.4 86.5426 192 86.2546 191.488C85.9746 190.968 85.8346 190.368 85.8346 189.688C85.8346 189.008 85.9706 188.412 86.2426 187.9C86.5226 187.38 86.9106 186.98 87.4066 186.7C87.9106 186.42 88.4866 186.28 89.1346 186.28C89.7586 186.28 90.3146 186.416 90.8026 186.688C91.2906 186.96 91.6706 187.344 91.9426 187.84C92.2146 188.328 92.3506 188.892 92.3506 189.532ZM90.9226 189.1C90.9146 188.596 90.7346 188.192 90.3826 187.888C90.0306 187.584 89.5946 187.432 89.0746 187.432C88.6026 187.432 88.1986 187.584 87.8626 187.888C87.5266 188.184 87.3266 188.588 87.2626 189.1H90.9226ZM96.0969 193.108C95.5769 193.108 95.1089 193.016 94.6929 192.832C94.2849 192.64 93.9609 192.384 93.7209 192.064C93.4809 191.736 93.3529 191.372 93.3369 190.972H94.7529C94.7769 191.252 94.9089 191.488 95.1489 191.68C95.3969 191.864 95.7049 191.956 96.0729 191.956C96.4569 191.956 96.7529 191.884 96.9609 191.74C97.1769 191.588 97.2849 191.396 97.2849 191.164C97.2849 190.916 97.1649 190.732 96.9249 190.612C96.6929 190.492 96.3209 190.36 95.8089 190.216C95.3129 190.08 94.9089 189.948 94.5969 189.82C94.2849 189.692 94.0129 189.496 93.7809 189.232C93.5569 188.968 93.4449 188.62 93.4449 188.188C93.4449 187.836 93.5489 187.516 93.7569 187.228C93.9649 186.932 94.2609 186.7 94.6449 186.532C95.0369 186.364 95.4849 186.28 95.9889 186.28C96.7409 186.28 97.3449 186.472 97.8009 186.856C98.2649 187.232 98.5129 187.748 98.5449 188.404H97.1769C97.1529 188.108 97.0329 187.872 96.8169 187.696C96.6009 187.52 96.3089 187.432 95.9409 187.432C95.5809 187.432 95.3049 187.5 95.1129 187.636C94.9209 187.772 94.8249 187.952 94.8249 188.176C94.8249 188.352 94.8889 188.5 95.0169 188.62C95.1449 188.74 95.3009 188.836 95.4849 188.908C95.6689 188.972 95.9409 189.056 96.3009 189.16C96.7809 189.288 97.1729 189.42 97.4769 189.556C97.7889 189.684 98.0569 189.876 98.2809 190.132C98.5049 190.388 98.6209 190.728 98.6289 191.152C98.6289 191.528 98.5249 191.864 98.3169 192.16C98.1089 192.456 97.8129 192.688 97.4289 192.856C97.0529 193.024 96.6089 193.108 96.0969 193.108ZM99.651 189.688C99.651 189.008 99.787 188.412 100.059 187.9C100.339 187.38 100.723 186.98 101.211 186.7C101.699 186.42 102.259 186.28 102.891 186.28C103.691 186.28 104.351 186.472 104.871 186.856C105.399 187.232 105.755 187.772 105.939 188.476H104.463C104.343 188.148 104.151 187.892 103.887 187.708C103.623 187.524 103.291 187.432 102.891 187.432C102.331 187.432 101.883 187.632 101.547 188.032C101.219 188.424 101.055 188.976 101.055 189.688C101.055 190.4 101.219 190.956 101.547 191.356C101.883 191.756 102.331 191.956 102.891 191.956C103.683 191.956 104.207 191.608 104.463 190.912H105.939C105.747 191.584 105.387 192.12 104.859 192.52C104.331 192.912 103.675 193.108 102.891 193.108C102.259 193.108 101.699 192.968 101.211 192.688C100.723 192.4 100.339 192 100.059 191.488C99.787 190.968 99.651 190.368 99.651 189.688ZM113.362 189.532C113.362 189.78 113.346 190.004 113.314 190.204H108.262C108.302 190.732 108.498 191.156 108.85 191.476C109.202 191.796 109.634 191.956 110.146 191.956C110.882 191.956 111.402 191.648 111.706 191.032H113.182C112.982 191.64 112.618 192.14 112.09 192.532C111.57 192.916 110.922 193.108 110.146 193.108C109.514 193.108 108.946 192.968 108.442 192.688C107.946 192.4 107.554 192 107.266 191.488C106.986 190.968 106.846 190.368 106.846 189.688C106.846 189.008 106.982 188.412 107.254 187.9C107.534 187.38 107.922 186.98 108.418 186.7C108.922 186.42 109.498 186.28 110.146 186.28C110.77 186.28 111.326 186.416 111.814 186.688C112.302 186.96 112.682 187.344 112.954 187.84C113.226 188.328 113.362 188.892 113.362 189.532ZM111.934 189.1C111.926 188.596 111.746 188.192 111.394 187.888C111.042 187.584 110.606 187.432 110.086 187.432C109.614 187.432 109.21 187.584 108.874 187.888C108.538 188.184 108.338 188.588 108.274 189.1H111.934ZM118.045 186.28C118.565 186.28 119.029 186.388 119.437 186.604C119.853 186.82 120.177 187.14 120.409 187.564C120.641 187.988 120.757 188.5 120.757 189.1V193H119.401V189.304C119.401 188.712 119.253 188.26 118.957 187.948C118.661 187.628 118.257 187.468 117.745 187.468C117.233 187.468 116.825 187.628 116.521 187.948C116.225 188.26 116.077 188.712 116.077 189.304V193H114.709V186.388H116.077V187.144C116.301 186.872 116.585 186.66 116.929 186.508C117.281 186.356 117.653 186.28 118.045 186.28ZM124.098 187.504V191.164C124.098 191.412 124.154 191.592 124.266 191.704C124.386 191.808 124.586 191.86 124.866 191.86H125.706V193H124.626C124.01 193 123.538 192.856 123.21 192.568C122.882 192.28 122.718 191.812 122.718 191.164V187.504H121.938V186.388H122.718V184.744H124.098V186.388H125.706V187.504H124.098ZM135.112 191.296H131.62L131.02 193H129.592L132.58 184.648H134.164L137.152 193H135.712L135.112 191.296ZM134.728 190.18L133.372 186.304L132.004 190.18H134.728ZM137.995 189.664C137.995 189 138.131 188.412 138.403 187.9C138.683 187.388 139.059 186.992 139.531 186.712C140.011 186.424 140.543 186.28 141.127 186.28C141.559 186.28 141.983 186.376 142.399 186.568C142.823 186.752 143.159 187 143.407 187.312V184.12H144.787V193H143.407V192.004C143.183 192.324 142.871 192.588 142.471 192.796C142.079 193.004 141.627 193.108 141.115 193.108C140.539 193.108 140.011 192.964 139.531 192.676C139.059 192.38 138.683 191.972 138.403 191.452C138.131 190.924 137.995 190.328 137.995 189.664ZM143.407 189.688C143.407 189.232 143.311 188.836 143.119 188.5C142.935 188.164 142.691 187.908 142.387 187.732C142.083 187.556 141.755 187.468 141.403 187.468C141.051 187.468 140.723 187.556 140.419 187.732C140.115 187.9 139.867 188.152 139.675 188.488C139.491 188.816 139.399 189.208 139.399 189.664C139.399 190.12 139.491 190.52 139.675 190.864C139.867 191.208 140.115 191.472 140.419 191.656C140.731 191.832 141.059 191.92 141.403 191.92C141.755 191.92 142.083 191.832 142.387 191.656C142.691 191.48 142.935 191.224 143.119 190.888C143.311 190.544 143.407 190.144 143.407 189.688ZM149.452 193.108C148.828 193.108 148.264 192.968 147.76 192.688C147.256 192.4 146.86 192 146.572 191.488C146.284 190.968 146.14 190.368 146.14 189.688C146.14 189.016 146.288 188.42 146.584 187.9C146.88 187.38 147.284 186.98 147.796 186.7C148.308 186.42 148.88 186.28 149.512 186.28C150.144 186.28 150.716 186.42 151.228 186.7C151.74 186.98 152.144 187.38 152.44 187.9C152.736 188.42 152.884 189.016 152.884 189.688C152.884 190.36 152.732 190.956 152.428 191.476C152.124 191.996 151.708 192.4 151.18 192.688C150.66 192.968 150.084 193.108 149.452 193.108ZM149.452 191.92C149.804 191.92 150.132 191.836 150.436 191.668C150.748 191.5 151 191.248 151.192 190.912C151.384 190.576 151.48 190.168 151.48 189.688C151.48 189.208 151.388 188.804 151.204 188.476C151.02 188.14 150.776 187.888 150.472 187.72C150.168 187.552 149.84 187.468 149.488 187.468C149.136 187.468 148.808 187.552 148.504 187.72C148.208 187.888 147.972 188.14 147.796 188.476C147.62 188.804 147.532 189.208 147.532 189.688C147.532 190.4 147.712 190.952 148.072 191.344C148.44 191.728 148.9 191.92 149.452 191.92ZM155.604 184.12V193H154.236V184.12H155.604ZM163.46 189.532C163.46 189.78 163.444 190.004 163.412 190.204H158.36C158.4 190.732 158.596 191.156 158.948 191.476C159.3 191.796 159.732 191.956 160.244 191.956C160.98 191.956 161.5 191.648 161.804 191.032H163.28C163.08 191.64 162.716 192.14 162.188 192.532C161.668 192.916 161.02 193.108 160.244 193.108C159.612 193.108 159.044 192.968 158.54 192.688C158.044 192.4 157.652 192 157.364 191.488C157.084 190.968 156.944 190.368 156.944 189.688C156.944 189.008 157.08 188.412 157.352 187.9C157.632 187.38 158.02 186.98 158.516 186.7C159.02 186.42 159.596 186.28 160.244 186.28C160.868 186.28 161.424 186.416 161.912 186.688C162.4 186.96 162.78 187.344 163.052 187.84C163.324 188.328 163.46 188.892 163.46 189.532ZM162.032 189.1C162.024 188.596 161.844 188.192 161.492 187.888C161.14 187.584 160.704 187.432 160.184 187.432C159.712 187.432 159.308 187.584 158.972 187.888C158.636 188.184 158.436 188.588 158.372 189.1H162.032ZM167.206 193.108C166.686 193.108 166.218 193.016 165.802 192.832C165.394 192.64 165.07 192.384 164.83 192.064C164.59 191.736 164.462 191.372 164.446 190.972H165.862C165.886 191.252 166.018 191.488 166.258 191.68C166.506 191.864 166.814 191.956 167.182 191.956C167.566 191.956 167.862 191.884 168.07 191.74C168.286 191.588 168.394 191.396 168.394 191.164C168.394 190.916 168.274 190.732 168.034 190.612C167.802 190.492 167.43 190.36 166.918 190.216C166.422 190.08 166.018 189.948 165.706 189.82C165.394 189.692 165.122 189.496 164.89 189.232C164.666 188.968 164.554 188.62 164.554 188.188C164.554 187.836 164.658 187.516 164.866 187.228C165.074 186.932 165.37 186.7 165.754 186.532C166.146 186.364 166.594 186.28 167.098 186.28C167.85 186.28 168.454 186.472 168.91 186.856C169.374 187.232 169.622 187.748 169.654 188.404H168.286C168.262 188.108 168.142 187.872 167.926 187.696C167.71 187.52 167.418 187.432 167.05 187.432C166.69 187.432 166.414 187.5 166.222 187.636C166.03 187.772 165.934 187.952 165.934 188.176C165.934 188.352 165.998 188.5 166.126 188.62C166.254 188.74 166.41 188.836 166.594 188.908C166.778 188.972 167.05 189.056 167.41 189.16C167.89 189.288 168.282 189.42 168.586 189.556C168.898 189.684 169.166 189.876 169.39 190.132C169.614 190.388 169.73 190.728 169.738 191.152C169.738 191.528 169.634 191.864 169.426 192.16C169.218 192.456 168.922 192.688 168.538 192.856C168.162 193.024 167.718 193.108 167.206 193.108ZM170.76 189.688C170.76 189.008 170.896 188.412 171.168 187.9C171.448 187.38 171.832 186.98 172.32 186.7C172.808 186.42 173.368 186.28 174 186.28C174.8 186.28 175.46 186.472 175.98 186.856C176.508 187.232 176.864 187.772 177.048 188.476H175.572C175.452 188.148 175.26 187.892 174.996 187.708C174.732 187.524 174.4 187.432 174 187.432C173.44 187.432 172.992 187.632 172.656 188.032C172.328 188.424 172.164 188.976 172.164 189.688C172.164 190.4 172.328 190.956 172.656 191.356C172.992 191.756 173.44 191.956 174 191.956C174.792 191.956 175.316 191.608 175.572 190.912H177.048C176.856 191.584 176.496 192.12 175.968 192.52C175.44 192.912 174.784 193.108 174 193.108C173.368 193.108 172.808 192.968 172.32 192.688C171.832 192.4 171.448 192 171.168 191.488C170.896 190.968 170.76 190.368 170.76 189.688ZM184.472 189.532C184.472 189.78 184.456 190.004 184.424 190.204H179.372C179.412 190.732 179.608 191.156 179.96 191.476C180.312 191.796 180.744 191.956 181.256 191.956C181.992 191.956 182.512 191.648 182.816 191.032H184.292C184.092 191.64 183.728 192.14 183.2 192.532C182.68 192.916 182.032 193.108 181.256 193.108C180.624 193.108 180.056 192.968 179.552 192.688C179.056 192.4 178.664 192 178.376 191.488C178.096 190.968 177.956 190.368 177.956 189.688C177.956 189.008 178.092 188.412 178.364 187.9C178.644 187.38 179.032 186.98 179.528 186.7C180.032 186.42 180.608 186.28 181.256 186.28C181.88 186.28 182.436 186.416 182.924 186.688C183.412 186.96 183.792 187.344 184.064 187.84C184.336 188.328 184.472 188.892 184.472 189.532ZM183.044 189.1C183.036 188.596 182.856 188.192 182.504 187.888C182.152 187.584 181.716 187.432 181.196 187.432C180.724 187.432 180.32 187.584 179.984 187.888C179.648 188.184 179.448 188.588 179.384 189.1H183.044ZM189.154 186.28C189.674 186.28 190.138 186.388 190.546 186.604C190.962 186.82 191.286 187.14 191.518 187.564C191.75 187.988 191.866 188.5 191.866 189.1V193H190.51V189.304C190.51 188.712 190.362 188.26 190.066 187.948C189.77 187.628 189.366 187.468 188.854 187.468C188.342 187.468 187.934 187.628 187.63 187.948C187.334 188.26 187.186 188.712 187.186 189.304V193H185.818V186.388H187.186V187.144C187.41 186.872 187.694 186.66 188.038 186.508C188.39 186.356 188.762 186.28 189.154 186.28ZM195.207 187.504V191.164C195.207 191.412 195.263 191.592 195.375 191.704C195.495 191.808 195.695 191.86 195.975 191.86H196.815V193H195.735C195.119 193 194.647 192.856 194.319 192.568C193.991 192.28 193.827 191.812 193.827 191.164V187.504H193.047V186.388H193.827V184.744H195.207V186.388H196.815V187.504H195.207Z" fill="black"/>
<rect width="266" height="34" transform="translate(44 206)" fill="white"/>
<path d="M58.268 225.896H61.088V227H56.9V218.66H58.268V225.896ZM61.776 223.664C61.776 223 61.912 222.412 62.184 221.9C62.464 221.388 62.84 220.992 63.312 220.712C63.792 220.424 64.32 220.28 64.896 220.28C65.416 220.28 65.868 220.384 66.252 220.592C66.644 220.792 66.956 221.044 67.188 221.348V220.388H68.568V227H67.188V226.016C66.956 226.328 66.64 226.588 66.24 226.796C65.84 227.004 65.384 227.108 64.872 227.108C64.304 227.108 63.784 226.964 63.312 226.676C62.84 226.38 62.464 225.972 62.184 225.452C61.912 224.924 61.776 224.328 61.776 223.664ZM67.188 223.688C67.188 223.232 67.092 222.836 66.9 222.5C66.716 222.164 66.472 221.908 66.168 221.732C65.864 221.556 65.536 221.468 65.184 221.468C64.832 221.468 64.504 221.556 64.2 221.732C63.896 221.9 63.648 222.152 63.456 222.488C63.272 222.816 63.18 223.208 63.18 223.664C63.18 224.12 63.272 224.52 63.456 224.864C63.648 225.208 63.896 225.472 64.2 225.656C64.512 225.832 64.84 225.92 65.184 225.92C65.536 225.92 65.864 225.832 66.168 225.656C66.472 225.48 66.716 225.224 66.9 224.888C67.092 224.544 67.188 224.144 67.188 223.688ZM80.67 218.66L77.538 227H75.954L72.81 218.66H74.274L76.746 225.596L79.23 218.66H80.67ZM82.5101 219.512C82.2621 219.512 82.0541 219.428 81.8861 219.26C81.7181 219.092 81.6341 218.884 81.6341 218.636C81.6341 218.388 81.7181 218.18 81.8861 218.012C82.0541 217.844 82.2621 217.76 82.5101 217.76C82.7501 217.76 82.9541 217.844 83.1221 218.012C83.2901 218.18 83.3741 218.388 83.3741 218.636C83.3741 218.884 83.2901 219.092 83.1221 219.26C82.9541 219.428 82.7501 219.512 82.5101 219.512ZM83.1821 220.388V227H81.8141V220.388H83.1821ZM91.0381 223.532C91.0381 223.78 91.0221 224.004 90.9901 224.204H85.9381C85.9781 224.732 86.1741 225.156 86.5261 225.476C86.8781 225.796 87.3101 225.956 87.8221 225.956C88.5581 225.956 89.0781 225.648 89.3821 225.032H90.8581C90.6581 225.64 90.2941 226.14 89.7661 226.532C89.2461 226.916 88.5981 227.108 87.8221 227.108C87.1901 227.108 86.6221 226.968 86.1181 226.688C85.6221 226.4 85.2301 226 84.9421 225.488C84.6621 224.968 84.5221 224.368 84.5221 223.688C84.5221 223.008 84.6581 222.412 84.9301 221.9C85.2101 221.38 85.5981 220.98 86.0941 220.7C86.5981 220.42 87.1741 220.28 87.8221 220.28C88.4461 220.28 89.0021 220.416 89.4901 220.688C89.9781 220.96 90.3581 221.344 90.6301 221.84C90.9021 222.328 91.0381 222.892 91.0381 223.532ZM89.6101 223.1C89.6021 222.596 89.4221 222.192 89.0701 221.888C88.7181 221.584 88.2821 221.432 87.7621 221.432C87.2901 221.432 86.8861 221.584 86.5501 221.888C86.2141 222.184 86.0141 222.588 85.9501 223.1H89.6101ZM96.8696 219.764V222.212H99.7496V223.328H96.8696V225.884H100.11V227H95.5016V218.648H100.11V219.764H96.8696ZM105.131 220.28C105.651 220.28 106.115 220.388 106.523 220.604C106.939 220.82 107.263 221.14 107.495 221.564C107.727 221.988 107.843 222.5 107.843 223.1V227H106.487V223.304C106.487 222.712 106.339 222.26 106.043 221.948C105.747 221.628 105.343 221.468 104.831 221.468C104.319 221.468 103.911 221.628 103.607 221.948C103.311 222.26 103.163 222.712 103.163 223.304V227H101.795V220.388H103.163V221.144C103.387 220.872 103.671 220.66 104.015 220.508C104.367 220.356 104.739 220.28 105.131 220.28ZM117.037 227L115.117 223.664H114.073V227H112.705V218.66H115.585C116.225 218.66 116.765 218.772 117.205 218.996C117.653 219.22 117.985 219.52 118.201 219.896C118.425 220.272 118.537 220.692 118.537 221.156C118.537 221.7 118.377 222.196 118.057 222.644C117.745 223.084 117.261 223.384 116.605 223.544L118.669 227H117.037ZM114.073 222.572H115.585C116.097 222.572 116.481 222.444 116.737 222.188C117.001 221.932 117.133 221.588 117.133 221.156C117.133 220.724 117.005 220.388 116.749 220.148C116.493 219.9 116.105 219.776 115.585 219.776H114.073V222.572ZM123.155 227.108C122.531 227.108 121.967 226.968 121.463 226.688C120.959 226.4 120.563 226 120.275 225.488C119.987 224.968 119.843 224.368 119.843 223.688C119.843 223.016 119.991 222.42 120.287 221.9C120.583 221.38 120.987 220.98 121.499 220.7C122.011 220.42 122.583 220.28 123.215 220.28C123.847 220.28 124.419 220.42 124.931 220.7C125.443 220.98 125.847 221.38 126.143 221.9C126.439 222.42 126.587 223.016 126.587 223.688C126.587 224.36 126.435 224.956 126.131 225.476C125.827 225.996 125.411 226.4 124.883 226.688C124.363 226.968 123.787 227.108 123.155 227.108ZM123.155 225.92C123.507 225.92 123.835 225.836 124.139 225.668C124.451 225.5 124.703 225.248 124.895 224.912C125.087 224.576 125.183 224.168 125.183 223.688C125.183 223.208 125.091 222.804 124.907 222.476C124.723 222.14 124.479 221.888 124.175 221.72C123.871 221.552 123.543 221.468 123.191 221.468C122.839 221.468 122.511 221.552 122.207 221.72C121.911 221.888 121.675 222.14 121.499 222.476C121.323 222.804 121.235 223.208 121.235 223.688C121.235 224.4 121.415 224.952 121.775 225.344C122.143 225.728 122.603 225.92 123.155 225.92ZM130.339 227.108C129.819 227.108 129.351 227.016 128.935 226.832C128.527 226.64 128.203 226.384 127.963 226.064C127.723 225.736 127.595 225.372 127.579 224.972H128.995C129.019 225.252 129.151 225.488 129.391 225.68C129.639 225.864 129.947 225.956 130.315 225.956C130.699 225.956 130.995 225.884 131.203 225.74C131.419 225.588 131.527 225.396 131.527 225.164C131.527 224.916 131.407 224.732 131.167 224.612C130.935 224.492 130.563 224.36 130.051 224.216C129.555 224.08 129.151 223.948 128.839 223.82C128.527 223.692 128.255 223.496 128.023 223.232C127.799 222.968 127.687 222.62 127.687 222.188C127.687 221.836 127.791 221.516 127.999 221.228C128.207 220.932 128.503 220.7 128.887 220.532C129.279 220.364 129.727 220.28 130.231 220.28C130.983 220.28 131.587 220.472 132.043 220.856C132.507 221.232 132.755 221.748 132.787 222.404H131.419C131.395 222.108 131.275 221.872 131.059 221.696C130.843 221.52 130.551 221.432 130.183 221.432C129.823 221.432 129.547 221.5 129.355 221.636C129.163 221.772 129.067 221.952 129.067 222.176C129.067 222.352 129.131 222.5 129.259 222.62C129.387 222.74 129.543 222.836 129.727 222.908C129.911 222.972 130.183 223.056 130.543 223.16C131.023 223.288 131.415 223.42 131.719 223.556C132.031 223.684 132.299 223.876 132.523 224.132C132.747 224.388 132.863 224.728 132.871 225.152C132.871 225.528 132.767 225.864 132.559 226.16C132.351 226.456 132.055 226.688 131.671 226.856C131.295 227.024 130.851 227.108 130.339 227.108ZM140.409 223.532C140.409 223.78 140.393 224.004 140.361 224.204H135.309C135.349 224.732 135.545 225.156 135.897 225.476C136.249 225.796 136.681 225.956 137.193 225.956C137.929 225.956 138.449 225.648 138.753 225.032H140.229C140.029 225.64 139.665 226.14 139.137 226.532C138.617 226.916 137.969 227.108 137.193 227.108C136.561 227.108 135.993 226.968 135.489 226.688C134.993 226.4 134.601 226 134.313 225.488C134.033 224.968 133.893 224.368 133.893 223.688C133.893 223.008 134.029 222.412 134.301 221.9C134.581 221.38 134.969 220.98 135.465 220.7C135.969 220.42 136.545 220.28 137.193 220.28C137.817 220.28 138.373 220.416 138.861 220.688C139.349 220.96 139.729 221.344 140.001 221.84C140.273 222.328 140.409 222.892 140.409 223.532ZM138.981 223.1C138.973 222.596 138.793 222.192 138.441 221.888C138.089 221.584 137.653 221.432 137.133 221.432C136.661 221.432 136.257 221.584 135.921 221.888C135.585 222.184 135.385 222.588 135.321 223.1H138.981Z" fill="black"/>
<rect x="247" y="48.1003" width="4.14095" height="13.8997" rx="2" fill="#8E8D92"/>
<rect x="253.141" y="48.1003" width="4.14095" height="13.8997" rx="2" fill="#8E8D92"/>
<rect x="267.282" y="48" width="28" height="14" rx="2" fill="#8E8D92"/>
<path d="M290.282 62L269.282 62C268.177 62 267.282 61.1046 267.282 60L267.282 50C267.282 48.8954 268.177 48 269.282 48L290.282 48L290.282 62Z" fill="url(#paint3_linear_6510_171)"/>
<path d="M295.282 52H296.282C296.834 52 297.282 52.4477 297.282 53V57C297.282 57.5523 296.834 58 296.282 58H295.282V52Z" fill="#8E8D92"/>
<rect x="267.282" y="48" width="28" height="14" rx="2" fill="#8E8D92"/>
<path d="M290.282 62L269.282 62C268.177 62 267.282 61.1046 267.282 60L267.282 50C267.282 48.8954 268.177 48 269.282 48L290.282 48L290.282 62Z" fill="url(#paint4_linear_6510_171)"/>
<path d="M295.282 52H296.282C296.834 52 297.282 52.4477 297.282 53V57C297.282 57.5523 296.834 58 296.282 58H295.282V52Z" fill="#8E8D92"/>
<defs>
<linearGradient id="paint0_linear_6510_171" x1="0" y1="292" x2="353" y2="292" gradientUnits="userSpaceOnUse">
<stop stop-color="#BFBFBF"/>
<stop offset="0.32967" stop-color="#CECECE"/>
<stop offset="0.648462" stop-color="#CECECE"/>
<stop offset="1" stop-color="#AFAFAF"/>
</linearGradient>
<radialGradient id="paint1_radial_6510_171" cx="0" cy="0" r="1" gradientUnits="userSpaceOnUse" gradientTransform="translate(176.77 377) rotate(90) scale(163.333 165)">
<stop stop-color="#C1C1C1"/>
<stop offset="0.515625" stop-color="#ECECEC"/>
<stop offset="1" stop-color="#ACACAC"/>
</radialGradient>
<linearGradient id="paint2_linear_6510_171" x1="133" y1="0" x2="133" y2="34" gradientUnits="userSpaceOnUse">
<stop stop-color="#3AABEB"/>
<stop offset="1" stop-color="#317EB6"/>
</linearGradient>
<linearGradient id="paint3_linear_6510_171" x1="278.984" y1="48" x2="278.984" y2="62" gradientUnits="userSpaceOnUse">
<stop stop-color="#A7DD80"/>
<stop offset="0.421875" stop-color="#BDE2A8"/>
<stop offset="0.729167" stop-color="#86A773"/>
<stop offset="1" stop-color="#617E4B"/>
</linearGradient>
<linearGradient id="paint4_linear_6510_171" x1="278.984" y1="48" x2="278.984" y2="62" gradientUnits="userSpaceOnUse">
<stop stop-color="#A7DD80"/>
<stop offset="0.421875" stop-color="#BDE2A8"/>
<stop offset="0.729167" stop-color="#86A773"/>
<stop offset="1" stop-color="#617E4B"/>
</linearGradient>
</defs>
</svg>
