<svg width="29" height="17" viewBox="0 0 29 17" fill="none" xmlns="http://www.w3.org/2000/svg">
<path d="M24.0934 6.78074C25.3976 7.5559 25.3976 9.4441 24.0934 10.2193L17.6225 14.0652C16.2893 14.8576 14.6007 13.8968 14.6007 12.3459L14.6007 4.65405C14.6007 3.10319 16.2893 2.14243 17.6225 2.9348L24.0934 6.78074Z" fill="#8E8D92"/>
<path d="M13.6212 6.78074C14.9254 7.5559 14.9254 9.4441 13.6212 10.2193L7.15033 14.0652C5.81716 14.8576 4.1285 13.8968 4.1285 12.3459L4.1285 4.65405C4.1285 3.10319 5.81716 2.14243 7.15033 2.9348L13.6212 6.78074Z" fill="#8E8D92"/>
<rect x="29" y="14.5122" width="3.625" height="12.439" rx="1.8125" transform="rotate(-180 29 14.5122)" fill="#8E8D92"/>
</svg>
